<svg viewBox="0 0 1200 630" xmlns="http://www.w3.org/2000/svg">
  <!-- Background -->
  <rect width="1200" height="630" fill="#f0f4f8"/>

  <!-- Decorative elements -->
  <circle cx="150" cy="150" r="80" fill="#4a6fe3" opacity="0.8"/>
  <circle cx="1050" cy="480" r="100" fill="#2ecc71" opacity="0.7"/>
  <rect x="300" y="80" width="200" height="40" rx="20" fill="#e74c3c" opacity="0.6"/>
  <rect x="700" y="520" width="300" height="60" rx="30" fill="#f39c12" opacity="0.6"/>

  <!-- GitHub logo suggestion -->
  <g transform="translate(100, 300) scale(0.15)">
    <path d="M512 0C229.25 0 0 229.25 0 512c0 226.25 146.69 418.13 350.16 485.81 25.59 4.69 34.94-11.12 34.94-24.62 0-12.19-0.47-52.56-0.69-95.31-142.44 30.94-172.5-60.41-172.5-60.41-23.31-59.25-56.84-75-56.84-75-46.53-31.75 3.53-31.12 3.53-31.12 51.41 3.59 78.47 52.84 78.47 52.84 45.69 78.28 119.84 55.63 149 42.5 4.59-33.12 17.88-55.69 32.5-68.47-113.66-12.88-233.19-56.81-233.19-252.97 0-55.91 20-101.56 52.84-137.41-5.34-12.94-22.91-65.03 4.97-135.53 0 0 43.09-13.78 141.2 52.66 40.97-11.38 84.81-17.03 128.56-17.25 43.66 0.22 87.59 5.88 128.56 17.25 98-66.44 141-52.66 141-52.66 27.97 70.5 10.41 122.59 5.16 135.53 32.84 35.84 52.72 81.5 52.72 137.41 0 196.69-119.75 239.94-233.81 252.59 18.38 15.88 34.75 47 34.75 94.69 0 68.44-0.69 123.63-0.69 140.5 0 13.63 9.31 29.56 35.25 24.56C877.44 929.94 1024 738.16 1024 512 1024 229.25 794.75 0 512 0z" fill="#24292e"/>
  </g>

  <!-- Text -->
  <text x="600" y="250" font-family="Arial, sans-serif" font-size="80" font-weight="bold" text-anchor="middle" fill="#2c3e50">GitHub Pages</text>
  <text x="600" y="330" font-family="Arial, sans-serif" font-size="40" text-anchor="middle" fill="#34495e">静的サイトホスティングサンプル</text>

  <!-- Bottom text -->
  <text x="600" y="520" font-family="Arial, sans-serif" font-size="30" text-anchor="middle" fill="#7f8c8d">index.html + ogp.svg</text>
</svg>
